<?xml version="1.0" encoding="UTF-8"?>
<svg id="Layer_1" xmlns="http://www.w3.org/2000/svg" version="1.1" viewBox="0 0 595.28 841.89">
  <!-- Generator: Adobe Illustrator 29.8.5, SVG Export Plug-In . SVG Version: 2.1.1 Build 2)  -->
  <defs>
    <style>
      .st0, .st1, .st2, .st3, .st4 {
        stroke: #231f20;
        stroke-miterlimit: 10;
      }

      .st0, .st3 {
        stroke-linecap: round;
      }

      .st0, .st4 {
        fill: none;
      }

      .st1, .st3, .st5 {
        fill: #fff;
      }

      .st2 {
        fill: #231f20;
      }

      .st5 {
        font-family: FreestyleScript-Regular, 'Freestyle Script';
        font-size: 60px;
      }
    </style>
  </defs>
  <rect class="st2" x="127.28" y="343.56" width="286.93" height="115.46"/>
  <rect class="st2" x="406.2" y="374.06" width="94.57" height="61.34"/>
  <circle class="st2" cx="195.41" cy="291.51" r="75.34"/>
  <circle class="st2" cx="355.3" cy="311.94" r="50.09"/>
  <circle class="st1" cx="146.52" cy="325.97" r="12.02"/>
  <circle class="st3" cx="133.7" cy="298.72" r="12.02"/>
  <circle class="st3" cx="139.31" cy="271.47" r="12.02"/>
  <circle class="st3" cx="155.34" cy="247.43" r="12.02"/>
  <circle class="st3" cx="180.18" cy="233.8" r="12.02"/>
  <circle class="st3" cx="212.24" cy="233.8" r="12.02"/>
  <circle class="st3" cx="236.28" cy="248.23" r="12.02"/>
  <circle class="st3" cx="251.51" cy="271.47" r="12.02"/>
  <circle class="st3" cx="255.52" cy="298.76" r="12.02"/>
  <circle class="st3" cx="241.09" cy="326.37" r="12.02"/>
  <g>
    <line class="st4" x1="279.14" y1="459.02" x2="279.14" y2="625.72"/>
    <line class="st4" x1="279.14" y1="459.02" x2="224.26" y2="625.72"/>
    <line class="st4" x1="279.14" y1="459.02" x2="338.07" y2="625.72"/>
    <line class="st0" x1="277.53" y1="573.63" x2="232.82" y2="602.48"/>
    <line class="st0" x1="277.9" y1="572.82" x2="330.79" y2="604.47"/>
  </g>
  <path class="st2" d="M125.19,345.04c-16.99,5.19-41.41,198.98-25.57,196.49,7.82-1.23,24.68-50.17,25.83-53.49,27.43-79.62,10.3-146.22-.25-143Z"/>
  <circle class="st3" cx="355.3" cy="310.79" r="29.39"/>
  <text/>
  <text class="st5" transform="translate(170.34 420.39)"><tspan x="0" y="0">German Films</tspan></text>
</svg>